<svg width="633" height="633" viewBox="0 0 633 633" fill="none" xmlns="http://www.w3.org/2000/svg">
<mask id="mask0_765_220" style="mask-type:luminance" maskUnits="userSpaceOnUse" x="10" y="14" width="609" height="610">
<path d="M314.654 623.098C482.603 623.098 618.753 486.948 618.753 318.999C618.753 151.049 482.603 14.8994 314.654 14.8994C146.704 14.8994 10.5547 151.049 10.5547 318.999C10.5547 486.948 146.704 623.098 314.654 623.098Z" fill="white"/>
</mask>
<g mask="url(#mask0_765_220)">
<path d="M581.471 272.332C595.237 279.161 610.537 305.123 609.296 354.017C608.054 402.911 599.765 443.297 603.344 461.372C606.922 479.447 608.091 506.833 595.383 532.211C582.676 557.589 534.439 535.425 545.54 468.273C556.641 401.122 562.848 330.501 559.781 300.814C556.75 271.091 573.474 268.352 581.471 272.332Z" fill="#00B291"/>
</g>
<mask id="mask1_765_220" style="mask-type:luminance" maskUnits="userSpaceOnUse" x="10" y="14" width="609" height="610">
<path d="M314.654 623.098C482.603 623.098 618.753 486.948 618.753 318.999C618.753 151.049 482.603 14.8994 314.654 14.8994C146.704 14.8994 10.5547 151.049 10.5547 318.999C10.5547 486.948 146.704 623.098 314.654 623.098Z" fill="white"/>
</mask>
<g mask="url(#mask1_765_220)">
<path d="M36.5894 235.232C48.603 222.306 63.1725 220.371 71.1329 240.235C88.6967 284.236 82.0144 359.019 75.3321 384.945C68.6498 410.871 66.5319 467.762 54.0072 476.525C41.4825 485.289 -9.52934 355.952 -3.65039 330.829C2.22857 305.707 29.1768 243.229 36.5894 235.232Z" fill="#00B291"/>
</g>
<mask id="mask2_765_220" style="mask-type:luminance" maskUnits="userSpaceOnUse" x="10" y="14" width="609" height="610">
<path d="M314.654 623.098C482.603 623.098 618.753 486.948 618.753 318.999C618.753 151.049 482.603 14.8994 314.654 14.8994C146.704 14.8994 10.5547 151.049 10.5547 318.999C10.5547 486.948 146.704 623.098 314.654 623.098Z" fill="white"/>
</mask>
<g mask="url(#mask2_765_220)">
<path d="M127.148 411.273C139.271 417.554 153.585 495.879 147.304 529.619C141.024 563.359 149.532 626.969 122.657 633.249C95.7814 639.53 79.9337 593.521 90.8883 559.927C101.879 526.332 106.882 460.788 103.997 439.28C101.113 417.773 112.834 403.824 127.148 411.273Z" fill="#00B291"/>
</g>
<mask id="mask3_765_220" style="mask-type:luminance" maskUnits="userSpaceOnUse" x="10" y="14" width="609" height="610">
<path d="M314.654 623.098C482.603 623.098 618.753 486.948 618.753 318.999C618.753 151.049 482.603 14.8994 314.654 14.8994C146.704 14.8994 10.5547 151.049 10.5547 318.999C10.5547 486.948 146.704 623.098 314.654 623.098Z" fill="white"/>
</mask>
<g mask="url(#mask3_765_220)">
<path d="M549.665 304.174C549.665 304.174 565.33 292.817 571.063 283.25C571.428 282.666 572.049 282.703 572.378 283.323C577.417 293 593.849 304.174 593.849 304.174" stroke="#1D1D1B" stroke-width="4.90604" stroke-miterlimit="10" stroke-linecap="round"/>
<path d="M545.32 328.201C545.32 328.201 564.053 314.617 570.918 303.188C571.319 302.494 572.086 302.53 572.488 303.261C578.513 314.836 598.158 328.164 598.158 328.164" stroke="#1D1D1B" stroke-width="4.90604" stroke-miterlimit="10" stroke-linecap="round"/>
<path d="M542.436 351.498C542.436 351.498 563.213 336.417 570.844 323.746C571.319 322.979 572.159 323.052 572.561 323.856C579.243 336.709 601.079 351.498 601.079 351.498" stroke="#1D1D1B" stroke-width="4.90604" stroke-miterlimit="10" stroke-linecap="round"/>
<path d="M542.436 373.443C542.436 373.443 563.213 358.362 570.844 345.691C571.319 344.924 572.159 344.998 572.561 345.801C579.243 358.654 601.079 373.443 601.079 373.443" stroke="#1D1D1B" stroke-width="4.90604" stroke-miterlimit="10" stroke-linecap="round"/>
<path d="M542.436 395.352C542.436 395.352 563.213 380.271 570.844 367.6C571.319 366.834 572.159 366.907 572.561 367.71C579.243 380.563 601.079 395.352 601.079 395.352" stroke="#1D1D1B" stroke-width="4.90604" stroke-miterlimit="10" stroke-linecap="round"/>
<path d="M542.436 417.261C542.436 417.261 563.213 402.18 570.844 389.51C571.319 388.743 572.159 388.816 572.561 389.619C579.243 402.473 601.079 417.261 601.079 417.261" stroke="#1D1D1B" stroke-width="4.90604" stroke-miterlimit="10" stroke-linecap="round"/>
<path d="M542.436 439.207C542.436 439.207 563.213 424.126 570.844 411.455C571.319 410.688 572.159 410.761 572.561 411.564C579.243 424.418 601.079 439.207 601.079 439.207" stroke="#1D1D1B" stroke-width="4.90604" stroke-miterlimit="10" stroke-linecap="round"/>
<path d="M542.436 461.116C542.436 461.116 563.213 446.035 570.844 433.364C571.319 432.597 572.159 432.67 572.561 433.474C579.243 446.327 601.079 461.116 601.079 461.116" stroke="#1D1D1B" stroke-width="4.90604" stroke-miterlimit="10" stroke-linecap="round"/>
<path d="M542.436 483.062C542.436 483.062 563.213 467.981 570.844 455.31C571.319 454.544 572.159 454.617 572.561 455.42C579.243 468.273 601.079 483.062 601.079 483.062" stroke="#1D1D1B" stroke-width="4.90604" stroke-miterlimit="10" stroke-linecap="round"/>
<path d="M546.708 502.89C546.708 502.89 564.454 490 570.954 479.192C571.356 478.534 572.086 478.571 572.451 479.265C578.148 490.256 596.807 502.89 596.807 502.89" stroke="#1D1D1B" stroke-width="4.90604" stroke-miterlimit="10" stroke-linecap="round"/>
<path d="M551.126 522.681C551.126 522.681 565.732 512.055 571.1 503.182C571.428 502.634 572.013 502.671 572.305 503.255C577.015 512.311 592.352 522.718 592.352 522.718" stroke="#1D1D1B" stroke-width="4.90604" stroke-miterlimit="10" stroke-linecap="round"/>
<path d="M571.757 522.681V578.695" stroke="#1D1D1B" stroke-width="4.90604" stroke-miterlimit="10" stroke-linecap="round"/>
<path d="M100.929 448.774C100.929 448.774 116.594 437.418 122.327 427.851C122.692 427.267 123.313 427.303 123.641 427.924C128.68 437.6 145.112 448.774 145.112 448.774" stroke="#1D1D1B" stroke-width="4.90604" stroke-miterlimit="10" stroke-linecap="round"/>
<path d="M96.6201 472.801C96.6201 472.801 115.352 459.218 122.217 447.788C122.619 447.095 123.386 447.131 123.787 447.861C129.812 459.437 149.458 472.765 149.458 472.765" stroke="#1D1D1B" stroke-width="4.90604" stroke-miterlimit="10" stroke-linecap="round"/>
<path d="M93.6992 496.098C93.6992 496.098 114.476 481.017 122.108 468.347C122.583 467.58 123.423 467.653 123.824 468.456C130.507 481.309 152.343 496.098 152.343 496.098" stroke="#1D1D1B" stroke-width="4.90604" stroke-miterlimit="10" stroke-linecap="round"/>
<path d="M93.6992 518.043C93.6992 518.043 114.476 502.963 122.108 490.292C122.583 489.525 123.423 489.598 123.824 490.401C130.507 503.255 152.343 518.043 152.343 518.043" stroke="#1D1D1B" stroke-width="4.90604" stroke-miterlimit="10" stroke-linecap="round"/>
<path d="M93.6992 539.953C93.6992 539.953 114.476 524.872 122.108 512.201C122.583 511.434 123.423 511.507 123.824 512.311C130.507 525.164 152.343 539.953 152.343 539.953" stroke="#1D1D1B" stroke-width="4.90604" stroke-miterlimit="10" stroke-linecap="round"/>
<path d="M93.6992 561.862C93.6992 561.862 114.476 546.781 122.108 534.11C122.583 533.343 123.423 533.416 123.824 534.22C130.507 547.073 152.343 561.862 152.343 561.862" stroke="#1D1D1B" stroke-width="4.90604" stroke-miterlimit="10" stroke-linecap="round"/>
<path d="M93.6992 583.808C93.6992 583.808 114.476 568.727 122.108 556.057C122.583 555.29 123.423 555.363 123.824 556.166C130.507 569.019 152.343 583.808 152.343 583.808" stroke="#1D1D1B" stroke-width="4.90604" stroke-miterlimit="10" stroke-linecap="round"/>
<path d="M93.6992 605.717C93.6992 605.717 114.476 590.637 122.108 577.966C122.583 577.199 123.423 577.272 123.824 578.075C130.507 590.929 152.343 605.717 152.343 605.717" stroke="#1D1D1B" stroke-width="4.90604" stroke-miterlimit="10" stroke-linecap="round"/>
<path d="M93.6992 627.663C93.6992 627.663 114.476 612.582 122.108 599.911C122.583 599.144 123.423 599.217 123.824 600.021C130.507 612.874 152.343 627.663 152.343 627.663" stroke="#1D1D1B" stroke-width="4.90604" stroke-miterlimit="10" stroke-linecap="round"/>
<path d="M97.9717 647.49C97.9717 647.49 115.718 634.6 122.218 623.791C122.619 623.134 123.35 623.171 123.715 623.864C129.411 634.855 148.071 647.49 148.071 647.49" stroke="#1D1D1B" stroke-width="4.90604" stroke-miterlimit="10" stroke-linecap="round"/>
<path d="M34.4346 231.8C34.4346 231.8 50.0996 220.444 55.8325 210.877C56.1977 210.293 56.8184 210.33 57.1471 210.95C62.1862 220.627 78.618 231.8 78.618 231.8" stroke="#1D1D1B" stroke-width="4.90604" stroke-miterlimit="10" stroke-linecap="round"/>
<path d="M30.126 255.791C30.126 255.791 48.8583 242.207 55.7232 230.778C56.1248 230.084 56.8917 230.12 57.2933 230.851C63.3183 242.426 82.9636 255.754 82.9636 255.754" stroke="#1D1D1B" stroke-width="4.90604" stroke-miterlimit="10" stroke-linecap="round"/>
<path d="M27.2051 279.125C27.2051 279.125 47.9823 264.044 55.614 251.373C56.0887 250.606 56.9285 250.679 57.3302 251.482C64.0125 264.336 85.8486 279.125 85.8486 279.125" stroke="#1D1D1B" stroke-width="4.90604" stroke-miterlimit="10" stroke-linecap="round"/>
<path d="M27.2051 301.034C27.2051 301.034 47.9823 285.953 55.614 273.282C56.0887 272.515 56.9285 272.588 57.3302 273.392C64.0125 286.245 85.8486 301.034 85.8486 301.034" stroke="#1D1D1B" stroke-width="4.90604" stroke-miterlimit="10" stroke-linecap="round"/>
<path d="M27.2051 322.979C27.2051 322.979 47.9823 307.898 55.614 295.227C56.0887 294.461 56.9285 294.534 57.3302 295.337C64.0125 308.19 85.8486 322.979 85.8486 322.979" stroke="#1D1D1B" stroke-width="4.90604" stroke-miterlimit="10" stroke-linecap="round"/>
<path d="M27.2051 344.888C27.2051 344.888 47.9823 329.807 55.614 317.137C56.0887 316.37 56.9285 316.443 57.3302 317.246C64.0125 330.1 85.8486 344.888 85.8486 344.888" stroke="#1D1D1B" stroke-width="4.90604" stroke-miterlimit="10" stroke-linecap="round"/>
<path d="M27.2051 366.834C27.2051 366.834 47.9823 351.753 55.614 339.082C56.0887 338.315 56.9285 338.388 57.3302 339.191C64.0125 352.045 85.8486 366.834 85.8486 366.834" stroke="#1D1D1B" stroke-width="4.90604" stroke-miterlimit="10" stroke-linecap="round"/>
<path d="M27.2051 388.743C27.2051 388.743 47.9823 373.662 55.614 360.991C56.0887 360.224 56.9285 360.297 57.3302 361.101C64.0125 373.954 85.8486 388.743 85.8486 388.743" stroke="#1D1D1B" stroke-width="4.90604" stroke-miterlimit="10" stroke-linecap="round"/>
<path d="M27.2051 410.652C27.2051 410.652 47.9823 395.571 55.614 382.9C56.0887 382.133 56.9285 382.207 57.3302 383.01C64.0125 395.863 85.8486 410.652 85.8486 410.652" stroke="#1D1D1B" stroke-width="4.90604" stroke-miterlimit="10" stroke-linecap="round"/>
<path d="M31.5137 430.516C31.5137 430.516 49.2601 417.626 55.7598 406.818C56.1615 406.16 56.8918 406.197 57.2569 406.891C62.9533 417.882 81.6126 430.516 81.6126 430.516" stroke="#1D1D1B" stroke-width="4.90604" stroke-miterlimit="10" stroke-linecap="round"/>
<path d="M35.9326 450.308C35.9326 450.308 50.5387 439.682 55.9065 430.809C56.2351 430.261 56.8193 430.298 57.1115 430.882C61.8219 439.938 77.1584 450.345 77.1584 450.345" stroke="#1D1D1B" stroke-width="4.90604" stroke-miterlimit="10" stroke-linecap="round"/>
<path d="M56.5264 450.308V506.286" stroke="#1D1D1B" stroke-width="4.90604" stroke-miterlimit="10" stroke-linecap="round"/>
</g>
<path d="M340.286 380.051C345.569 380.051 349.853 375.768 349.853 370.484C349.853 365.2 345.569 360.917 340.286 360.917C335.002 360.917 330.719 365.2 330.719 370.484C330.719 375.768 335.002 380.051 340.286 380.051Z" fill="#F2712A"/>
<path d="M487.004 380.234C492.287 380.234 496.571 375.95 496.571 370.667C496.571 365.383 492.287 361.1 487.004 361.1C481.72 361.1 477.437 365.383 477.437 370.667C477.437 375.95 481.72 380.234 487.004 380.234Z" fill="#F2712A"/>
<path d="M461.224 323.051H325.278C314.068 323.051 305.012 311.037 305.012 296.212V277.078C305.012 259.697 314.433 244.799 327.359 241.95C362.961 234.1 414.119 234.647 440.958 242.023C471.667 250.495 479.007 278.466 480.723 283.614C486.821 302.237 476.524 323.051 461.224 323.051Z" fill="#F2712A"/>
<path d="M283.322 301.068H269.008C268.132 301.068 267.401 300.338 267.401 299.461V280.035C267.401 279.159 268.132 278.429 269.008 278.429H283.322C284.198 278.429 284.929 279.159 284.929 280.035V299.461C284.929 300.338 284.198 301.068 283.322 301.068Z" fill="#F2712A"/>
<path d="M196.671 291.976C189.551 291.757 184.585 292.012 174.361 292.852C173.63 292.925 173.046 293.437 172.937 294.167C171.476 302.565 170.015 327.286 169.65 333.421C169.614 334.224 170.161 334.918 170.928 335.064C178.268 336.378 189.478 337.693 193.75 338.204C194.663 338.314 195.503 337.583 195.503 336.671C195.576 330.426 196.014 308.627 198.205 293.838C198.315 292.816 197.621 291.976 196.671 291.976Z" fill="#F2712A"/>
<path d="M263.713 390.713C248.595 404.37 251.005 468.819 267.62 468.819C284.234 468.819 281.788 429.784 281.788 429.784" stroke="#1D1D1B" stroke-width="4.90604" stroke-miterlimit="10" stroke-linecap="round"/>
<path d="M267.62 468.782H287.521C289.347 468.782 291.026 467.942 292.158 466.518C295.335 462.465 300.886 452.569 300.082 433.654" stroke="#1D1D1B" stroke-width="4.90604" stroke-miterlimit="10" stroke-linecap="round"/>
<path d="M172.28 414.812C171.696 431.573 175.53 449.283 183.271 449.283C193.422 449.283 194.627 428.542 194.664 419.121" stroke="#1D1D1B" stroke-width="4.90604" stroke-miterlimit="10" stroke-linecap="round"/>
<path d="M183.271 449.247H198.424C200.323 449.247 202.112 448.37 203.208 446.8C205.618 443.404 209.233 436.211 209.05 423.357" stroke="#1D1D1B" stroke-width="4.90604" stroke-miterlimit="10" stroke-linecap="round"/>
<path d="M436.248 435.151C437.088 452.861 441.835 468.782 450.087 468.782C462.795 468.782 464.328 445.887 464.365 435.151" stroke="#1D1D1B" stroke-width="4.90604" stroke-miterlimit="10" stroke-linecap="round"/>
<path d="M450.087 468.782H469.988C471.813 468.782 473.493 467.942 474.625 466.518C477.692 462.574 483.06 453.08 482.585 435.151" stroke="#1D1D1B" stroke-width="4.90604" stroke-miterlimit="10" stroke-linecap="round"/>
<path d="M342.586 433.763C344.375 443.367 347.881 450.451 352.92 450.451C360.004 450.451 362.961 442.016 364.166 433.69" stroke="#1D1D1B" stroke-width="4.90604" stroke-miterlimit="10" stroke-linecap="round"/>
<path d="M352.92 450.451H369.169C371.031 450.451 372.784 449.575 373.88 448.078C375.705 445.595 378.225 441.03 379.467 433.654" stroke="#1D1D1B" stroke-width="4.90604" stroke-miterlimit="10" stroke-linecap="round"/>
<path d="M295.153 325.715V392.904C295.153 401.923 302.493 409.262 311.512 409.262H489.926C498.945 409.262 506.285 401.923 506.285 392.904V315.929C506.285 314.688 506.212 313.446 506.029 312.205L504.167 299.534C503.948 298.146 503.582 296.795 503.071 295.517C500.661 289.602 493.03 271.016 484.777 251.224C480.505 240.964 471.266 233.587 460.275 231.798C413.244 224.203 362.341 222.962 317.537 230.411C304.611 232.565 295.19 243.812 295.19 256.921V285.11C295.19 299.205 306.619 310.598 320.677 310.598H447.97C468.272 310.598 482.075 290.04 474.37 271.235C468.893 257.834 455.82 249.07 441.36 249.07H329.733" stroke="#1D1D1B" stroke-width="4.90604" stroke-miterlimit="10" stroke-linecap="round"/>
<path d="M296.832 410.503C299.242 414.922 303.916 417.953 309.284 417.953H502.522C509.46 417.953 513.112 412.439 514.098 406.925C514.719 403.456 514.317 399.914 512.929 394.692" stroke="#1D1D1B" stroke-width="4.90604" stroke-miterlimit="10" stroke-linecap="round"/>
<path d="M208.246 410.212L156.322 400.462C156.322 400.462 147.303 303.733 168.956 254.584C171.476 248.851 176.953 244.944 183.197 244.323C226.249 240.124 286.572 235.012 286.572 235.012" stroke="#1D1D1B" stroke-width="4.90604" stroke-miterlimit="10" stroke-linecap="round"/>
<path d="M215.367 253.854C204.558 283.066 201.272 352.299 208.283 397.578" stroke="#1D1D1B" stroke-width="4.90604" stroke-miterlimit="10" stroke-linecap="round"/>
<path d="M255.643 253.854C244.835 283.066 241.548 352.299 248.559 397.578" stroke="#1D1D1B" stroke-width="4.90604" stroke-miterlimit="10" stroke-linecap="round"/>
<path d="M335.941 378.042C341.265 378.042 345.581 373.726 345.581 368.402C345.581 363.078 341.265 358.762 335.941 358.762C330.617 358.762 326.301 363.078 326.301 368.402C326.301 373.726 330.617 378.042 335.941 378.042Z" stroke="#1D1D1B" stroke-width="4.90604" stroke-miterlimit="10" stroke-linecap="round"/>
<path d="M482.622 378.042C487.946 378.042 492.262 373.726 492.262 368.402C492.262 363.078 487.946 358.762 482.622 358.762C477.298 358.762 472.982 363.078 472.982 368.402C472.982 373.726 477.298 378.042 482.622 378.042Z" stroke="#1D1D1B" stroke-width="4.90604" stroke-miterlimit="10" stroke-linecap="round"/>
<path d="M279.232 296.43H264.918C264.042 296.43 263.312 295.7 263.312 294.824V275.398C263.312 274.521 264.042 273.791 264.918 273.791H279.232C280.109 273.791 280.839 274.521 280.839 275.398V294.824C280.839 295.7 280.109 296.43 279.232 296.43Z" stroke="#1D1D1B" stroke-width="4.90604" stroke-miterlimit="10" stroke-linecap="round"/>
<path d="M272.075 288.178L282.446 298.439C283.139 299.132 283.504 300.045 283.504 300.995V304.646" stroke="#1D1D1B" stroke-width="4.90604" stroke-miterlimit="10" stroke-linecap="round"/>
<path d="M156.395 400.462C156.395 404.698 157.49 411.417 164.099 412.841" stroke="#1D1D1B" stroke-width="4.90604" stroke-miterlimit="10" stroke-linecap="round"/>
<path d="M186.301 235.011C227.125 221.902 345.58 204.74 450.306 221.756" stroke="#1D1D1B" stroke-width="4.90604" stroke-miterlimit="10" stroke-linecap="round"/>
<path d="M416.42 200.468C417.771 200.614 417.589 202.659 416.238 202.659C371.908 202.622 292.56 207.296 251.882 210.729C246.624 211.167 241.731 211.605 237.313 212.007C226.869 212.956 219.019 213.723 214.746 214.234C214.527 214.271 214.454 213.979 214.673 213.869C221.027 210.948 222.451 210.145 231.361 208.574C298.257 196.78 376.071 196.305 416.42 200.468Z" stroke="#1D1D1B" stroke-width="2.80346" stroke-miterlimit="10" stroke-linecap="round"/>
<path d="M248.633 204.813L248.669 204.448C249.181 196.342 244.616 189.075 237.715 185.789C237.678 185.753 237.678 185.716 237.715 185.679C239.942 184.949 242.316 184.657 244.799 184.803C254.621 185.424 262.326 193.275 262.91 202.878C262.91 202.915 262.874 202.915 262.874 202.951C257.908 203.535 253.124 204.156 248.633 204.813Z" stroke="#1D1D1B" stroke-width="2.80346" stroke-miterlimit="10" stroke-linecap="round"/>
<path d="M232.748 207.734V207.479C232.748 201.782 229.242 196.889 224.276 194.881C224.24 194.881 224.24 194.808 224.276 194.771C225.774 194.187 227.453 193.858 229.169 193.858C236.107 193.858 241.84 199.044 242.68 205.726C242.68 205.762 242.68 205.799 242.644 205.799C239.175 206.456 235.852 207.077 232.748 207.734Z" stroke="#1D1D1B" stroke-width="2.80346" stroke-miterlimit="10" stroke-linecap="round"/>
<path d="M309.576 335.574C366.321 335.574 401.303 352.992 413.316 398.125C414.01 400.754 417.771 400.718 418.428 398.089C426.498 365.627 457.901 332.288 495.147 332.288" stroke="#1D1D1B" stroke-width="3.65153" stroke-miterlimit="10" stroke-linecap="round"/>
<path d="M193.202 337.583C193.202 337.583 194.115 306.983 196.89 288.799C197.036 287.74 196.196 286.79 195.137 286.863C185.351 287.521 181.736 286.973 170.745 287.995C170.051 288.068 169.54 288.616 169.394 289.273C167.714 297.124 165.67 319.873 165.012 332.215C164.976 333.055 165.56 333.785 166.363 333.932C169.686 334.552 173.74 335.137 177.72 335.684" stroke="#1D1D1B" stroke-width="4.90604" stroke-miterlimit="10" stroke-linecap="round"/>
<path d="M577.269 170.818C602.83 215.221 617.436 266.707 617.436 321.626C617.436 488.83 481.891 624.411 314.651 624.411C147.411 624.411 11.9033 488.866 11.9033 321.626C11.9033 266.707 26.5094 215.221 52.0701 170.818" stroke="#1D1D1B" stroke-width="4.90604" stroke-miterlimit="10" stroke-linecap="round"/>
<path d="M411.418 152.67C421.602 152.67 429.858 144.414 429.858 134.23C429.858 124.046 421.602 115.79 411.418 115.79C401.234 115.79 392.978 124.046 392.978 134.23C392.978 144.414 401.234 152.67 411.418 152.67Z" fill="#F2712A"/>
<path d="M408.57 149.676C396.739 149.676 387.099 140.036 387.099 128.205C387.099 116.374 396.739 106.734 408.57 106.734C411.454 106.734 414.266 107.319 416.932 108.414C418.173 108.925 418.757 110.386 418.246 111.627C417.735 112.869 416.274 113.453 415.033 112.942C412.988 112.066 410.834 111.627 408.57 111.627C399.441 111.627 391.992 119.077 391.992 128.205C391.992 137.334 399.441 144.783 408.57 144.783C413.864 144.783 418.721 142.337 421.861 138.101C423.979 135.216 425.111 131.82 425.111 128.205C425.111 124.882 424.125 121.669 422.299 118.93C421.533 117.799 421.825 116.265 422.957 115.535C424.089 114.768 425.622 115.06 426.353 116.192C428.763 119.734 430.004 123.897 430.004 128.205C430.004 132.843 428.543 137.298 425.768 141.022C421.788 146.463 415.325 149.676 408.57 149.676Z" fill="#1D1D1B"/>
<path d="M384.798 106.88C384.177 106.88 383.557 106.624 383.082 106.15L357.74 80.808C356.791 79.8586 356.791 78.2884 357.74 77.339C358.69 76.3896 360.26 76.3896 361.209 77.339L386.551 102.681C387.5 103.63 387.5 105.2 386.551 106.15C386.04 106.661 385.419 106.88 384.798 106.88Z" fill="#1D1D1B"/>
<path d="M374.939 130.652H272.075C270.724 130.652 269.629 129.556 269.629 128.205C269.629 126.854 270.724 125.759 272.075 125.759H374.939C376.29 125.759 377.385 126.854 377.385 128.205C377.385 129.556 376.29 130.652 374.939 130.652Z" fill="#1D1D1B"/>
<path d="M352.19 187.032C351.569 187.032 350.948 186.776 350.474 186.301C349.524 185.352 349.524 183.782 350.474 182.832L383.045 150.261C383.995 149.311 385.565 149.311 386.514 150.261C387.464 151.21 387.464 152.78 386.514 153.73L353.943 186.301C353.468 186.776 352.847 187.032 352.19 187.032Z" fill="#1D1D1B"/>
<path d="M408.57 187.031C407.219 187.031 406.123 185.935 406.123 184.584V161.835C406.123 160.484 407.219 159.389 408.57 159.389C409.921 159.389 411.016 160.484 411.016 161.835V184.584C411.016 185.935 409.921 187.031 408.57 187.031Z" fill="#1D1D1B"/>
<path d="M509.79 231.909C509.169 231.909 508.549 231.653 508.074 231.179L430.625 153.73C429.676 152.78 429.676 151.21 430.625 150.261C431.575 149.311 433.145 149.311 434.094 150.261L511.543 227.71C512.492 228.659 512.492 230.229 511.543 231.179C511.068 231.653 510.447 231.909 509.79 231.909Z" fill="#1D1D1B"/>
<path d="M498.58 130.652H442.2C440.849 130.652 439.754 129.556 439.754 128.205C439.754 126.854 440.849 125.759 442.2 125.759H498.616C499.968 125.759 501.063 126.854 501.063 128.205C501.063 129.556 499.968 130.652 498.58 130.652Z" fill="#1D1D1B"/>
<path d="M432.341 106.881C431.721 106.881 431.1 106.625 430.625 106.15C429.676 105.201 429.676 103.631 430.625 102.681L441.58 91.7267C442.529 90.7773 444.099 90.7773 445.049 91.7267C445.998 92.6761 445.998 94.2463 445.049 95.1957L434.094 106.15C433.583 106.661 432.962 106.881 432.341 106.881Z" fill="#1D1D1B"/>
<path d="M418.574 156.613C418.793 156.394 419.085 156.175 419.414 156.066C420.692 155.591 422.116 156.212 422.591 157.453L424.599 162.602C425.074 163.88 424.453 165.268 423.211 165.779C421.933 166.253 420.509 165.633 420.035 164.391L418.026 159.243C417.661 158.293 417.88 157.271 418.574 156.613Z" fill="#1D1D1B"/>
<path d="M395.57 155.373C395.898 155.373 396.227 155.446 396.556 155.592C397.797 156.14 398.345 157.6 397.797 158.842L395.57 163.881C395.022 165.123 393.561 165.67 392.32 165.123C391.078 164.575 390.531 163.114 391.078 161.873L393.306 156.834C393.707 155.921 394.62 155.373 395.57 155.373Z" fill="#1D1D1B"/>
<path d="M380.16 138.211C380.379 138.43 380.598 138.722 380.707 139.051C381.182 140.329 380.561 141.753 379.32 142.228L374.171 144.236C372.893 144.711 371.506 144.09 370.994 142.848C370.52 141.57 371.14 140.146 372.382 139.672L377.531 137.663C378.48 137.298 379.502 137.554 380.16 138.211Z" fill="#1D1D1B"/>
<path d="M381.438 115.205C381.438 115.534 381.365 115.863 381.219 116.191C380.671 117.433 379.211 117.981 377.969 117.433L372.93 115.205C371.689 114.658 371.141 113.197 371.689 111.956C372.236 110.714 373.697 110.166 374.939 110.714L379.978 112.942C380.891 113.343 381.438 114.256 381.438 115.205Z" fill="#1D1D1B"/>
<path d="M398.563 99.7961C398.344 100.015 398.052 100.234 397.724 100.344C396.446 100.819 395.021 100.198 394.547 98.9563L392.538 93.8441C392.064 92.5661 392.684 91.1785 393.926 90.6673C395.204 90.1926 396.628 90.8134 397.103 92.0549L399.111 97.2035C399.476 98.1164 399.257 99.1388 398.563 99.7961Z" fill="#1D1D1B"/>
<path d="M421.568 101.074C421.24 101.074 420.911 101.001 420.583 100.855C419.341 100.307 418.793 98.8466 419.341 97.6051L421.568 92.566C422.116 91.3245 423.577 90.7767 424.818 91.3245C426.06 91.8722 426.608 93.3328 426.06 94.5743L423.832 99.6134C423.431 100.526 422.518 101.074 421.568 101.074Z" fill="#1D1D1B"/>
<path d="M436.978 118.236C436.759 118.017 436.54 117.725 436.43 117.396C435.955 116.118 436.576 114.694 437.818 114.22L442.966 112.211C444.244 111.737 445.632 112.357 446.143 113.599C446.618 114.877 445.997 116.301 444.755 116.776L439.607 118.784C438.657 119.149 437.635 118.894 436.978 118.236Z" fill="#1D1D1B"/>
<path d="M435.7 141.24C435.7 140.912 435.773 140.583 435.919 140.254C436.467 139.013 437.928 138.465 439.169 139.013L444.208 141.24C445.45 141.788 445.998 143.249 445.45 144.49C444.902 145.732 443.441 146.279 442.2 145.732L437.161 143.504C436.248 143.066 435.7 142.19 435.7 141.24Z" fill="#1D1D1B"/>
<path d="M408.57 97.0577C407.219 97.0577 406.123 95.9622 406.123 94.6111V78.8C406.123 77.449 407.219 76.3535 408.57 76.3535C409.921 76.3535 411.016 77.449 411.016 78.8V94.5746C411.016 95.9257 409.921 97.0577 408.57 97.0577Z" fill="#1D1D1B"/>
<path d="M211.059 497.083C218.873 499.529 224.46 499.2 230.193 496.754" stroke="#1D1D1B" stroke-width="4.20517" stroke-miterlimit="10" stroke-linecap="round"/>
<path d="M445.961 472.799C453.593 470.645 462.977 470.609 473.603 472.799" stroke="#1D1D1B" stroke-width="4.20517" stroke-miterlimit="10" stroke-linecap="round"/>
<path d="M178.158 453.264C187.579 450.416 204.559 451.365 209.707 453.41" stroke="#1D1D1B" stroke-width="4.20517" stroke-miterlimit="10" stroke-linecap="round"/>
<path d="M384.981 456.003C381.95 455.491 377.385 454.542 373.661 453.885C363.875 452.132 354.125 453.191 347.991 454.177C341.747 455.163 335.831 455.236 330.609 452.314" stroke="#1D1D1B" stroke-width="4.20517" stroke-miterlimit="10" stroke-linecap="round"/>
<path d="M400.719 489.377C397.359 489.925 395.935 490.29 392.065 489.231C385.93 487.551 382.206 487.624 377.605 488.793C374.647 489.56 368.987 489.669 366.029 487.99" stroke="#1D1D1B" stroke-width="4.20517" stroke-miterlimit="10" stroke-linecap="round"/>
<path d="M250.275 468.783C257.907 473.348 264.224 472.325 272.769 470.609C280.802 469.002 286.572 469.221 293.875 471.412" stroke="#1D1D1B" stroke-width="4.20517" stroke-miterlimit="10" stroke-linecap="round"/>
<path d="M323.817 515.193C335.94 518.662 338.35 514.463 348.064 515.522" stroke="#1D1D1B" stroke-width="4.20517" stroke-miterlimit="10" stroke-linecap="round"/>
<path d="M424.782 532.94C433.838 535.204 438.548 533.451 443.916 532.611" stroke="#1D1D1B" stroke-width="4.20517" stroke-miterlimit="10" stroke-linecap="round"/>
<path d="M577.27 173.265C576.613 173.265 575.992 173.009 575.517 172.534C575.043 172.096 574.787 171.439 574.787 170.782C574.787 170.124 575.043 169.504 575.517 169.029C576.102 168.445 576.942 168.189 577.745 168.372C577.891 168.408 578.073 168.445 578.22 168.518C578.366 168.591 578.512 168.664 578.658 168.737C578.804 168.81 578.913 168.919 579.023 169.029C579.461 169.467 579.753 170.124 579.753 170.782C579.753 171.439 579.498 172.06 579.023 172.534C578.913 172.644 578.767 172.753 578.658 172.826C578.512 172.899 578.366 172.972 578.22 173.046C578.073 173.119 577.927 173.155 577.745 173.192C577.599 173.265 577.416 173.265 577.27 173.265Z" fill="#1C1C1C"/>
<path d="M575.116 172.06C574.422 170.892 574.86 169.395 576.029 168.701C577.197 168.007 578.694 168.409 579.388 169.614C580.082 170.782 579.644 172.279 578.475 172.973C578.073 173.192 577.672 173.302 577.27 173.302C576.394 173.265 575.59 172.827 575.116 172.06Z" fill="#1C1C1C"/>
<path d="M567.118 158.914C566.863 158.513 566.717 158.038 566.717 157.6C566.717 156.796 567.118 155.993 567.849 155.518C568.981 154.788 570.514 155.117 571.245 156.249C571.5 156.65 571.646 157.125 571.646 157.563C571.646 158.367 571.245 159.17 570.514 159.645C570.113 159.9 569.638 160.046 569.2 160.046C568.396 160.046 567.593 159.645 567.118 158.914ZM58.8624 159.572C58.1321 159.097 57.7305 158.294 57.7305 157.49C57.7305 157.052 57.8765 156.577 58.1321 156.176C58.8624 155.044 60.3961 154.715 61.5281 155.445C62.2584 155.92 62.66 156.723 62.66 157.527C62.66 157.965 62.514 158.44 62.2584 158.841C61.7837 159.572 60.9803 159.973 60.177 159.973C59.7388 159.973 59.3006 159.827 58.8624 159.572ZM558.464 146.244C558.136 145.805 557.99 145.294 557.99 144.783C557.99 144.016 558.355 143.286 559.012 142.811C560.107 142.008 561.641 142.263 562.444 143.359C562.773 143.797 562.919 144.308 562.919 144.819C562.919 145.586 562.554 146.317 561.897 146.791C561.459 147.12 560.947 147.266 560.473 147.266C559.669 147.229 558.939 146.901 558.464 146.244ZM67.5166 146.718C66.8593 146.244 66.4941 145.513 66.4941 144.746C66.4941 144.235 66.6402 143.724 66.9688 143.286C67.7722 142.19 69.3058 141.935 70.4013 142.738C71.0585 143.213 71.4237 143.943 71.4237 144.71C71.4237 145.221 71.2776 145.732 70.949 146.171C70.4743 146.828 69.7075 147.193 68.9407 147.193C68.4294 147.193 67.9547 147.01 67.5166 146.718ZM549.153 133.974C548.788 133.536 548.605 132.989 548.605 132.441C548.605 131.71 548.934 131.017 549.518 130.542C550.577 129.702 552.111 129.848 552.951 130.907C553.316 131.345 553.498 131.893 553.498 132.441C553.498 133.171 553.17 133.865 552.585 134.34C552.147 134.705 551.599 134.887 551.052 134.887C550.358 134.924 549.628 134.595 549.153 133.974ZM76.7914 134.303C76.2072 133.828 75.8786 133.098 75.8786 132.404C75.8786 131.857 76.0611 131.309 76.4263 130.871C77.2661 129.812 78.8363 129.629 79.8587 130.505C80.443 130.98 80.7716 131.71 80.7716 132.404C80.7716 132.952 80.589 133.5 80.2239 133.938C79.7492 134.559 79.0189 134.851 78.3251 134.851C77.7773 134.851 77.2296 134.668 76.7914 134.303ZM539.221 122.253C538.819 121.778 538.6 121.194 538.6 120.61C538.6 119.916 538.892 119.259 539.44 118.784C540.462 117.871 541.996 117.981 542.909 119.003C543.31 119.478 543.53 120.062 543.53 120.646C543.53 121.34 543.237 121.997 542.69 122.472C542.215 122.874 541.631 123.093 541.046 123.093C540.389 123.056 539.732 122.801 539.221 122.253ZM86.6871 122.399C86.1393 121.924 85.8472 121.231 85.8472 120.573C85.8472 119.989 86.0663 119.405 86.468 118.93C87.3809 117.908 88.9145 117.835 89.9369 118.711C90.4847 119.186 90.7403 119.88 90.7403 120.537C90.7403 121.121 90.5212 121.705 90.1195 122.18C89.6448 122.728 88.951 122.983 88.2937 122.983C87.746 123.02 87.1618 122.801 86.6871 122.399ZM528.741 111.006C528.266 110.532 528.047 109.911 528.047 109.29C528.047 108.669 528.303 108.012 528.777 107.537C529.727 106.588 531.297 106.588 532.246 107.574C532.721 108.049 532.94 108.669 532.94 109.29C532.94 109.911 532.685 110.568 532.21 111.043C531.735 111.518 531.114 111.737 530.494 111.737C529.836 111.737 529.216 111.481 528.741 111.006ZM97.2035 111.006C96.6923 110.532 96.4732 109.874 96.4732 109.254C96.4732 108.633 96.7288 108.012 97.167 107.537C98.1163 106.551 99.6865 106.551 100.636 107.501C101.147 107.976 101.366 108.633 101.366 109.254C101.366 109.874 101.147 110.495 100.672 110.97C100.198 111.445 99.5404 111.7 98.9197 111.7C98.2989 111.7 97.6782 111.445 97.2035 111.006ZM517.677 100.344C517.165 99.8692 516.873 99.1754 516.873 98.5181C516.873 97.9339 517.092 97.3496 517.531 96.8749C518.444 95.889 520.014 95.816 521 96.7289C521.547 97.2036 521.803 97.8973 521.803 98.5546C521.803 99.1389 521.584 99.7231 521.146 100.198C520.671 100.746 520.014 101.001 519.32 101.001C518.736 100.965 518.151 100.782 517.677 100.344ZM108.268 100.125C107.829 99.6501 107.61 99.0658 107.61 98.4816C107.61 97.8243 107.866 97.167 108.414 96.6558C109.4 95.7429 110.97 95.816 111.883 96.8019C112.321 97.2766 112.54 97.8608 112.54 98.4451C112.54 99.1023 112.284 99.7596 111.737 100.271C111.262 100.709 110.678 100.928 110.093 100.928C109.4 100.928 108.742 100.673 108.268 100.125ZM506.101 90.2291C505.517 89.7544 505.225 89.0606 505.225 88.3303C505.225 87.7826 505.408 87.2349 505.773 86.7602C506.649 85.7012 508.183 85.5552 509.242 86.4315C509.826 86.9062 510.118 87.6 510.118 88.3303C510.118 88.8781 509.935 89.4258 509.57 89.9005C509.096 90.4847 508.402 90.7769 507.672 90.7769C507.087 90.7769 506.54 90.5943 506.101 90.2291ZM119.843 89.864C119.478 89.4258 119.295 88.8416 119.295 88.2938C119.295 87.6 119.587 86.8697 120.172 86.395C121.231 85.5187 122.764 85.6647 123.641 86.7237C124.006 87.1619 124.188 87.7461 124.188 88.2938C124.188 88.9876 123.896 89.7179 123.312 90.1926C122.837 90.5578 122.289 90.7403 121.742 90.7403C121.048 90.7403 120.354 90.4482 119.843 89.864ZM494.015 80.7352C493.358 80.2605 493.029 79.5302 493.029 78.7633C493.029 78.2521 493.175 77.7409 493.504 77.3027C494.307 76.2073 495.841 75.9882 496.936 76.7915C497.593 77.2662 497.922 77.9965 497.922 78.7633C497.922 79.2746 497.776 79.7858 497.447 80.224C496.973 80.8812 496.242 81.2099 495.475 81.2099C494.964 81.2099 494.453 81.0638 494.015 80.7352ZM131.966 80.1874C131.637 79.7493 131.491 79.238 131.491 78.7268C131.491 77.9965 131.82 77.2297 132.477 76.755C133.573 75.9517 135.106 76.1708 135.91 77.2662C136.238 77.7044 136.384 78.2156 136.384 78.7268C136.384 79.4571 136.056 80.224 135.398 80.6987C134.96 81.0273 134.449 81.1734 133.938 81.1734C133.208 81.1734 132.441 80.8447 131.966 80.1874ZM481.454 71.862C480.76 71.3873 480.358 70.6204 480.358 69.8171C480.358 69.3424 480.504 68.8677 480.76 68.4295C481.527 67.2976 483.024 67.0054 484.156 67.7357C484.85 68.2104 485.251 68.9773 485.251 69.7806C485.251 70.2553 485.105 70.73 484.85 71.1682C484.375 71.862 483.608 72.2636 482.805 72.2636C482.33 72.2636 481.855 72.1541 481.454 71.862ZM144.564 71.1317C144.272 70.6935 144.162 70.2188 144.162 69.7441C144.162 68.9407 144.527 68.1739 145.258 67.6992C146.39 66.9324 147.923 67.261 148.653 68.393C148.946 68.8312 149.055 69.3059 149.055 69.7806C149.055 70.5839 148.69 71.3507 147.96 71.8254C147.558 72.1176 147.083 72.2271 146.609 72.2271C145.805 72.2271 145.038 71.862 144.564 71.1317ZM468.454 63.646C467.687 63.1713 467.249 62.368 467.249 61.5281C467.249 61.09 467.359 60.6883 467.614 60.2866C468.308 59.1181 469.805 58.753 470.974 59.4468C471.741 59.9215 472.179 60.7248 472.179 61.5647C472.179 62.0028 472.069 62.4045 471.814 62.8062C471.339 63.573 470.536 64.0112 469.696 64.0112C469.294 63.9747 468.856 63.8651 468.454 63.646ZM157.6 62.7331C157.381 62.3315 157.271 61.9298 157.271 61.4916C157.271 60.6518 157.709 59.8484 158.476 59.3737C159.645 58.68 161.142 59.0451 161.835 60.2136C162.055 60.6153 162.164 61.0169 162.201 61.4551C162.201 62.295 161.762 63.0983 160.996 63.573C160.594 63.7921 160.156 63.9381 159.754 63.9381C158.878 63.9381 158.038 63.5365 157.6 62.7331ZM455.053 56.0874C454.213 55.6492 453.738 54.8093 453.738 53.8965C453.738 53.5313 453.812 53.1296 454.031 52.7645C454.651 51.5595 456.148 51.1213 457.354 51.7421C458.193 52.1802 458.668 53.0201 458.668 53.933C458.668 54.3346 458.559 54.6998 458.376 55.0649C457.938 55.9048 457.098 56.3795 456.185 56.3795C455.82 56.3795 455.455 56.3065 455.053 56.0874ZM171.037 55.0284C170.855 54.6633 170.745 54.2616 170.745 53.8965C170.745 53.0201 171.22 52.1437 172.06 51.7055C173.265 51.0848 174.762 51.523 175.383 52.728C175.565 53.0931 175.675 53.4948 175.675 53.8599C175.675 54.7363 175.2 55.6127 174.36 56.0508C173.995 56.2334 173.593 56.343 173.228 56.343C172.315 56.343 171.476 55.8683 171.037 55.0284ZM441.323 49.259C440.41 48.8573 439.899 47.9445 439.899 47.0316C439.899 46.7029 439.972 46.3378 440.118 46.0092C440.703 44.7676 442.163 44.2564 443.368 44.8407C444.245 45.2423 444.792 46.1552 444.792 47.0681C444.792 47.4332 444.719 47.7619 444.573 48.0905C444.172 49.0034 443.259 49.5146 442.346 49.5146C442.017 49.4781 441.652 49.4051 441.323 49.259ZM184.877 48.0175C184.731 47.6889 184.658 47.3237 184.658 46.9951C184.658 46.0822 185.169 45.1693 186.082 44.7676C187.323 44.1834 188.784 44.7311 189.331 45.9361C189.478 46.2648 189.551 46.6299 189.551 46.9586C189.551 47.8714 189.039 48.7843 188.126 49.186C187.798 49.332 187.433 49.4051 187.104 49.4051C186.155 49.4416 185.278 48.9304 184.877 48.0175ZM427.228 43.1244C426.279 42.7593 425.695 41.8099 425.695 40.8605C425.695 40.5684 425.768 40.2397 425.877 39.9476C426.389 38.7061 427.813 38.0853 429.091 38.5966C430.04 38.9982 430.624 39.9111 430.624 40.8605C430.624 41.1891 430.588 41.4813 430.442 41.7734C430.04 42.7228 429.127 43.307 428.178 43.307C427.849 43.307 427.521 43.2705 427.228 43.1244ZM199.045 41.7369C198.935 41.4447 198.862 41.1161 198.862 40.824C198.862 39.8746 199.446 38.9252 200.396 38.56C201.637 38.0488 203.098 38.6696 203.572 39.9111C203.682 40.2032 203.755 40.5319 203.755 40.824C203.755 41.7734 203.171 42.6863 202.221 43.0879C201.929 43.1975 201.601 43.2705 201.308 43.2705C200.359 43.2705 199.41 42.6863 199.045 41.7369ZM412.841 37.7567C411.819 37.4281 411.198 36.4787 411.198 35.4562C411.198 35.2006 411.235 34.9085 411.344 34.6529C411.782 33.3749 413.17 32.6811 414.448 33.1558C415.471 33.5209 416.091 34.4338 416.091 35.4562C416.091 35.7118 416.055 36.004 415.945 36.2596C415.58 37.282 414.631 37.9028 413.645 37.9028C413.389 37.8663 413.097 37.8297 412.841 37.7567ZM213.505 36.1865C213.395 35.9309 213.359 35.6388 213.359 35.3832C213.359 34.3608 214.016 33.4114 215.002 33.0828C216.28 32.6446 217.667 33.3384 218.142 34.6164C218.215 34.872 218.288 35.1276 218.288 35.3832C218.288 36.4056 217.667 37.355 216.645 37.7202C216.389 37.7932 216.097 37.8663 215.842 37.8663C214.819 37.8297 213.87 37.209 213.505 36.1865ZM398.199 33.0828C397.103 32.7541 396.41 31.7682 396.41 30.7093C396.41 30.4902 396.446 30.2711 396.519 30.052C396.884 28.7374 398.272 28.0071 399.55 28.3723C400.645 28.7009 401.339 29.6868 401.339 30.7458C401.339 30.9649 401.303 31.184 401.23 31.403C400.937 32.462 399.952 33.1923 398.893 33.1923C398.673 33.1923 398.418 33.1558 398.199 33.0828ZM228.257 31.3665C228.184 31.1474 228.147 30.9284 228.147 30.7093C228.147 29.6503 228.841 28.6644 229.936 28.3358C231.251 27.9706 232.602 28.7009 232.967 30.0155C233.04 30.2346 233.077 30.4537 233.077 30.6727C233.077 31.7317 232.383 32.7176 231.288 33.0462C231.068 33.1193 230.849 33.1558 230.594 33.1558C229.571 33.1558 228.585 32.462 228.257 31.3665ZM383.337 29.2121C382.205 28.9565 381.438 27.9341 381.438 26.8021C381.438 26.6196 381.475 26.437 381.511 26.2544C381.803 24.9398 383.155 24.1 384.469 24.4286C385.601 24.6842 386.368 25.7067 386.368 26.8386C386.368 27.0212 386.331 27.2038 386.295 27.3864C386.039 28.5183 385.017 29.2852 383.921 29.2852C383.702 29.2852 383.52 29.2486 383.337 29.2121ZM243.228 27.3499C243.191 27.1673 243.155 26.9847 243.155 26.8021C243.155 25.7067 243.922 24.6842 245.054 24.4286C246.368 24.1365 247.683 24.9398 248.011 26.2544C248.048 26.437 248.085 26.6196 248.085 26.8021C248.085 27.8976 247.318 28.92 246.186 29.1756C246.003 29.2121 245.821 29.2486 245.638 29.2486C244.506 29.2486 243.52 28.4818 243.228 27.3499ZM368.293 26.1083C367.124 25.8892 366.284 24.8668 366.284 23.6983C366.284 23.5523 366.284 23.4062 366.321 23.2601C366.577 21.9456 367.818 21.0327 369.169 21.2883C370.374 21.5074 371.177 22.5298 371.177 23.6983C371.177 23.8444 371.177 23.9905 371.141 24.1365C370.922 25.305 369.899 26.1449 368.731 26.1449C368.585 26.1449 368.439 26.1449 368.293 26.1083ZM258.418 24.1C258.382 23.9539 258.382 23.8079 258.382 23.6618C258.382 22.4933 259.222 21.4709 260.39 21.2518C261.741 20.9962 262.983 21.9091 263.238 23.2236C263.275 23.3697 263.275 23.5158 263.275 23.6618C263.275 24.8303 262.435 25.8527 261.267 26.0718C261.12 26.1083 260.974 26.1083 260.828 26.1083C259.66 26.1083 258.601 25.2685 258.418 24.1ZM353.102 23.7714C351.861 23.6253 350.948 22.5664 350.948 21.3248C350.948 21.2153 350.948 21.1057 350.948 20.9962C351.131 19.6451 352.336 18.6957 353.687 18.8783C354.928 19.0244 355.841 20.0833 355.841 21.2883C355.841 21.3979 355.841 21.5074 355.805 21.617C355.659 22.8585 354.6 23.7714 353.358 23.7714C353.322 23.7714 353.212 23.7714 353.102 23.7714ZM273.718 21.617C273.718 21.5074 273.682 21.3979 273.682 21.2883C273.682 20.0833 274.595 19.0244 275.836 18.8783C277.187 18.6957 278.392 19.6451 278.575 20.9962C278.575 21.1057 278.575 21.2153 278.575 21.3248C278.575 22.5298 277.662 23.5888 276.42 23.7348C276.311 23.7348 276.201 23.7714 276.128 23.7714C274.923 23.7714 273.864 22.8585 273.718 21.617ZM337.803 22.2012C336.525 22.0917 335.539 21.0327 335.539 19.7547C335.539 19.6816 335.539 19.6451 335.539 19.5721C335.648 18.221 336.817 17.1986 338.168 17.3082C339.446 17.4177 340.432 18.4766 340.432 19.7547C340.432 19.8277 340.432 19.8642 340.432 19.9373C340.322 21.2153 339.263 22.2012 337.985 22.2012C337.949 22.2012 337.876 22.2012 337.803 22.2012ZM289.128 19.9373C289.128 19.8642 289.128 19.7912 289.128 19.7547C289.128 18.4766 290.114 17.4177 291.392 17.3082C292.743 17.1986 293.911 18.221 294.021 19.5721C294.021 19.6451 294.021 19.7182 294.021 19.7547C294.021 21.0327 293.035 22.0917 291.757 22.2012C291.684 22.2012 291.647 22.2012 291.574 22.2012C290.296 22.2012 289.201 21.2153 289.128 19.9373ZM322.466 21.4344C321.115 21.3979 320.093 20.3024 320.093 18.9879C320.093 18.9513 320.093 18.9513 320.093 18.9148C320.129 17.5638 321.261 16.5048 322.612 16.5413C323.927 16.5779 324.986 17.6733 324.986 18.9879C324.986 19.0244 324.986 19.0244 324.986 19.0609C324.949 20.412 323.854 21.4344 322.539 21.4344C322.503 21.4344 322.503 21.4344 322.466 21.4344ZM304.574 19.0244C304.574 18.9879 304.574 18.9879 304.574 18.9513C304.574 17.6368 305.633 16.5413 306.984 16.5048C308.335 16.4683 309.467 17.5272 309.503 18.9148C309.503 18.9513 309.503 18.9513 309.503 18.9879C309.503 20.3024 308.444 21.3979 307.093 21.4344C307.057 21.4344 307.057 21.4344 307.02 21.4344C305.706 21.4344 304.61 20.3754 304.574 19.0244Z" fill="#1C1C1C"/>
<path d="M52.0709 173.265C51.9249 173.265 51.7423 173.229 51.5962 173.229C51.4502 173.192 51.2676 173.156 51.1215 173.083C50.9755 173.01 50.8294 172.937 50.6833 172.864C50.5373 172.791 50.4277 172.681 50.3182 172.571C49.88 172.133 49.5879 171.476 49.5879 170.819C49.5879 170.161 49.8435 169.541 50.3182 169.066C50.4277 168.956 50.5738 168.847 50.6833 168.774C50.8294 168.701 50.9755 168.591 51.1215 168.555C51.2676 168.482 51.4137 168.445 51.5962 168.409C52.3996 168.263 53.2394 168.518 53.8237 169.066C54.2984 169.504 54.554 170.161 54.554 170.819C54.554 171.476 54.2984 172.097 53.8237 172.571C53.349 173.01 52.7282 173.265 52.0709 173.265Z" fill="#1C1C1C"/>
</svg>
