<svg width="264" height="62" viewBox="0 0 264 62" fill="none" xmlns="http://www.w3.org/2000/svg">
<path d="M17.3355 60.4055L0 24.4031L2.79352 22.9933L35.8197 46.4901L33.7572 42.4173C28.5095 32.0265 23.9929 22.6016 20.2073 14.1428L23.4446 13.229C27.5958 20.4869 34.0965 32.627 42.9731 49.623C42.3988 50.3018 41.72 50.824 40.9367 51.2417C39.7619 51.8422 38.3782 52.1032 36.7595 52.051C33.0261 49.8841 28.0396 46.464 21.7999 41.8168C15.5601 37.1697 11.2002 34.0107 8.71994 32.3659C9.92089 34.6895 12.1139 38.945 15.2468 45.1064C18.3798 51.2939 20.8078 55.9411 22.5309 59.1001C22.7658 60.3271 22.4264 61.1626 21.5388 61.6064C20.9122 61.9197 20.2073 61.9719 19.3719 61.7369C18.5103 61.4759 17.8315 61.0582 17.3355 60.4055Z" fill="white"/>
<path d="M35.2451 9.60077C36.2111 9.20916 37.1771 9.31359 38.1692 9.91406C39.1352 10.5145 39.8401 11.3239 40.2578 12.4204C40.5711 13.2036 40.6233 13.9085 40.4405 14.5612C40.2578 15.1878 39.8401 15.6316 39.1874 15.8927C38.1953 16.2843 37.2293 16.1799 36.3416 15.5794C35.454 14.9789 34.7752 14.1174 34.3314 13.0209C34.0181 12.2376 33.9397 11.5327 34.0964 10.9062C34.2791 10.2796 34.6446 9.83574 35.2451 9.60077ZM38.2736 19.5217L40.9627 19.0778C42.3986 21.8975 44.4611 26.4141 47.1502 32.6277C49.8393 38.8413 51.5102 42.6791 52.1629 44.1411C52.2673 45.3682 51.8757 46.1775 50.9358 46.543C50.2831 46.8041 49.5782 46.778 48.7689 46.4908C47.9856 46.2036 47.3591 45.7076 46.9152 45.0288C46.4192 43.5407 45.0616 39.6506 42.8424 33.3848C40.6494 27.119 39.1352 22.4979 38.2736 19.5217Z" fill="white"/>
<path d="M70.1252 16.7799L67.6711 17.3804C66.2612 15.5529 64.6426 14.9524 62.815 15.5268C62.0057 15.7878 61.2225 16.2317 60.4393 16.8843C59.656 17.537 59.0294 18.1375 58.5595 18.7119C58.0896 19.2862 57.4891 20.0695 56.7842 21.1138C56.9408 21.6359 57.463 23.3068 58.3245 26.1264C59.1861 28.9722 60.2043 32.1051 61.3269 35.5252C62.4756 38.9714 63.1022 40.7989 63.2589 41.0339C63.2589 42.2348 62.7889 42.992 61.823 43.3053C61.1442 43.5141 60.4393 43.4358 59.656 43.0964C58.8728 42.757 58.2984 42.2348 57.9068 41.5038C54.9305 29.4943 52.7636 20.3828 51.4321 14.1953L54.1212 13.9603L55.4527 17.5893C57.3585 14.6652 59.2122 12.916 61.0397 12.3416C63.05 11.715 64.8775 11.6367 66.5484 12.1328C68.2193 12.6288 69.3158 13.7514 69.8641 15.5006C70.0207 16.0228 70.0991 16.4666 70.1252 16.7799Z" fill="white"/>
<path d="M88.8438 4.7962L92.7861 4.48291C92.7077 7.61582 92.525 12.3674 92.29 18.7899C92.0289 25.2124 91.8723 30.4078 91.8201 34.3761C90.4103 34.9505 89.1571 35.3682 88.0606 35.5771C87.1468 35.7598 86.2853 35.8643 85.4759 35.8904C84.4838 34.0628 82.9435 31.1388 80.8288 27.1704C78.714 23.2021 76.8865 19.7298 75.3723 16.7796C73.858 13.8555 72.4743 11.0359 71.1689 8.32073L74.9546 7.79858L87.2773 29.729C87.4862 27.797 87.6951 25.6301 87.8778 23.2282C88.0606 20.8263 88.1911 18.7899 88.2694 17.0929C88.3478 15.3959 88.4261 13.2029 88.5566 10.4877C88.7133 7.77247 88.7916 5.86661 88.8438 4.7962Z" fill="white"/>
<path d="M101.063 7.59028L99.6006 4.79676C100.488 3.70024 101.663 2.76037 103.125 2.00325C104.587 1.24613 106.075 0.77619 107.563 0.619544C114.038 -0.111469 117.876 5.13616 119.129 16.2841C119.312 17.8245 119.468 20.0697 119.625 23.0721C119.782 26.0745 119.938 28.3197 120.121 29.8079C119.938 31.0349 119.416 31.6876 118.529 31.792C117.85 31.8704 117.171 31.5832 116.518 30.9827C115.866 30.3561 115.5 29.6251 115.396 28.7897C115.37 28.5286 115.37 28.3197 115.396 28.2153C113.281 30.7738 110.879 32.2098 108.216 32.4969C106.18 32.7319 104.326 32.1837 102.655 30.8783C100.984 29.5729 100.018 27.8759 99.7833 25.7612C99.3917 22.2105 100.41 18.8427 102.864 15.6575C105.318 12.4724 108.294 10.6971 111.819 10.3055C111.976 10.2794 112.132 10.2794 112.289 10.2794C112.446 10.2794 112.628 10.2794 112.837 10.3055C113.046 10.3316 113.229 10.3316 113.333 10.3055C112.524 5.89328 110.514 3.883 107.25 4.2485C105.344 4.45737 103.282 5.57999 101.063 7.59028ZM115.056 24.2208C114.821 21.5317 114.639 19.4954 114.482 18.1378C114.351 16.989 114.143 15.3965 113.829 13.334L113.359 13.3862C110.644 13.7256 108.294 15.031 106.258 17.2501C104.248 19.4954 103.386 22.0278 103.699 24.8474C103.83 26.0745 104.326 27.0144 105.135 27.6409C105.971 28.2936 106.911 28.5547 107.981 28.4242C109.73 28.2414 112.054 26.8577 115.056 24.2208Z" fill="white"/>
<path d="M129.547 7.04152L130.147 29.964C129.573 30.2773 128.894 30.4601 128.085 30.4601C127.458 30.4601 126.779 30.3817 125.996 30.199C126.074 27.771 126.074 22.9933 125.996 15.8659C125.918 8.73851 125.996 3.46478 126.205 0.0446777L128.816 0.56683L129.051 3.80417C131.061 1.61113 133.385 0.488507 136.048 0.4624C137.405 0.436292 138.476 0.514615 139.285 0.697368C140.094 0.880121 140.877 1.32395 141.635 2.08107C142.392 2.81208 142.992 3.80417 143.384 5.03123C143.775 6.25829 144.167 8.0075 144.506 10.305C144.846 12.6024 145.107 15.2654 145.29 18.32C145.472 21.3746 145.629 25.2385 145.733 29.8857C145.498 29.964 145.055 30.0162 144.402 30.0162C143.018 30.0423 141.948 29.8857 141.165 29.5463C141.008 28.9197 140.904 27.9015 140.877 26.4917C140.877 25.7607 140.877 24.377 140.904 22.3406C140.93 20.3042 140.93 18.7377 140.904 17.6151C140.877 15.7615 140.773 14.1428 140.616 12.7591C140.46 11.3754 140.199 10.0178 139.807 8.66019C139.415 7.3287 138.841 6.2844 138.084 5.55338C137.327 4.82237 136.387 4.48297 135.264 4.50908C133.985 4.53519 132.993 4.63962 132.288 4.84848C131.583 5.05734 131.087 5.29231 130.8 5.57949C130.539 5.84057 130.121 6.33661 129.547 7.04152Z" fill="white"/>
<path d="M155.34 5.60542L154.453 2.55083C155.549 1.63707 156.881 0.958268 158.473 0.514439C160.066 0.070609 161.606 -0.0860364 163.094 0.0445016C169.569 0.644977 172.284 6.5453 171.24 17.7455C171.109 19.2858 170.796 21.5311 170.352 24.5073C169.908 27.4836 169.595 29.7028 169.465 31.217C169.047 32.3657 168.394 32.914 167.507 32.8357C166.828 32.7835 166.227 32.3657 165.705 31.6347C165.183 30.9037 164.974 30.0944 165.052 29.2589C165.078 28.9978 165.105 28.789 165.157 28.6846C162.572 30.7732 159.935 31.6869 157.246 31.4259C155.21 31.2431 153.513 30.3293 152.129 28.7107C150.745 27.092 150.171 25.2384 150.354 23.1236C150.693 19.5469 152.364 16.4662 155.419 13.8554C158.473 11.2447 161.763 10.0959 165.287 10.4353C165.444 10.4614 165.601 10.4614 165.757 10.5137C165.914 10.5398 166.097 10.592 166.306 10.6442C166.514 10.6964 166.671 10.7486 166.802 10.7486C166.906 6.28422 165.34 3.88232 162.076 3.56903C160.17 3.38628 157.925 4.06507 155.34 5.60542ZM165.679 24.7162C165.992 22.0532 166.227 20.0168 166.358 18.6331C166.462 17.4844 166.567 15.8657 166.697 13.8032L166.227 13.751C163.512 13.5421 160.927 14.3254 158.499 16.1007C156.071 17.876 154.714 20.1996 154.453 23.0453C154.348 24.2724 154.609 25.2906 155.288 26.0738C155.967 26.8831 156.855 27.327 157.925 27.4314C159.648 27.5619 162.207 26.6743 165.679 24.7162Z" fill="white"/>
<path d="M215.075 11.5322L218.73 13.0465C217.242 15.7878 214.918 19.965 211.759 25.552C208.6 31.1391 206.094 35.7079 204.24 39.2324C202.726 39.1019 201.42 38.893 200.35 38.6058C199.462 38.3709 198.653 38.0576 197.896 37.6921C197.87 35.6035 197.791 32.3139 197.713 27.7973C197.635 23.2807 197.583 19.3906 197.583 16.075C197.583 12.7593 197.635 9.60028 197.713 6.5979L201.316 7.87717L202.308 33.0188C203.378 31.4001 204.553 29.5465 205.806 27.5101C207.06 25.4476 208.13 23.6984 208.965 22.2364C209.801 20.7743 210.897 18.8424 212.229 16.4927C213.613 14.1169 214.552 12.4721 215.075 11.5322Z" fill="white"/>
<path d="M224.682 19.5992L224.656 16.4401C225.936 15.8658 227.424 15.5525 229.068 15.5525C230.713 15.5525 232.254 15.8136 233.663 16.3357C239.746 18.6332 240.791 25.0557 236.796 35.5509C236.248 36.9868 235.36 39.0755 234.133 41.8168C232.906 44.5581 232.019 46.6467 231.496 48.0304C230.792 49.0486 230.008 49.388 229.199 49.0747C228.546 48.8397 228.076 48.2914 227.789 47.4299C227.502 46.5683 227.502 45.759 227.789 44.9758C227.894 44.7147 227.972 44.5581 228.05 44.4536C224.996 45.759 222.202 45.9418 219.696 45.0019C217.79 44.2709 216.38 42.9655 215.493 41.0335C214.605 39.1016 214.527 37.1435 215.284 35.1854C216.563 31.8436 219.017 29.3112 222.646 27.5881C226.275 25.8911 229.747 25.6561 233.063 26.9093C233.193 26.9615 233.35 27.0398 233.481 27.0921C233.611 27.1704 233.768 27.2487 233.951 27.3792C234.133 27.4837 234.29 27.562 234.394 27.6142C235.7 23.3326 234.812 20.6174 231.758 19.4425C229.93 18.7376 227.58 18.7898 224.682 19.5992ZM229.565 40.7724C230.583 38.2922 231.34 36.3864 231.836 35.081C232.254 34.0106 232.776 32.4702 233.455 30.5122L233.011 30.3555C230.452 29.4156 227.737 29.494 224.943 30.5644C222.124 31.6348 220.218 33.5145 219.2 36.1775C218.756 37.3262 218.756 38.3705 219.2 39.3365C219.644 40.2764 220.375 40.9552 221.367 41.3468C222.959 41.9212 225.701 41.7384 229.565 40.7724Z" fill="white"/>
<path d="M250.424 32.1314L240.321 52.7042C239.668 52.7303 238.989 52.5476 238.258 52.182C237.71 51.8949 237.135 51.5032 236.535 50.9811C237.736 48.8664 239.929 44.6369 243.166 38.2928C246.404 31.9486 248.91 27.3015 250.685 24.3774L252.748 26.0483L251.442 29.0246C254.236 28.0064 256.821 28.1108 259.196 29.3118C260.397 29.9123 261.311 30.4866 261.964 31.0349C262.59 31.5831 263.086 32.3403 263.426 33.3585C263.765 34.3767 263.817 35.4993 263.608 36.7786C263.4 38.0578 262.904 39.7809 262.173 41.974C261.415 44.167 260.423 46.6472 259.17 49.4408C257.917 52.2343 256.246 55.7327 254.21 59.9099C253.975 59.8838 253.557 59.701 252.983 59.4139C251.756 58.7873 250.868 58.1607 250.32 57.508C250.45 56.8814 250.842 55.9415 251.495 54.6623C251.834 54.0096 252.461 52.7825 253.427 51.0072C254.393 49.2319 255.124 47.8221 255.62 46.83C256.455 45.1852 257.108 43.6971 257.63 42.3917C258.126 41.0863 258.518 39.7548 258.805 38.3711C259.092 36.9874 259.066 35.8126 258.726 34.8205C258.387 33.8284 257.708 33.0713 256.716 32.5752C255.593 32.0009 254.654 31.6354 253.923 31.5048C253.192 31.3482 252.643 31.3482 252.278 31.4526C251.86 31.5309 251.26 31.7659 250.424 32.1314Z" fill="white"/>
</svg>
