<svg width="265" height="62" viewBox="0 0 265 62" fill="none" xmlns="http://www.w3.org/2000/svg">
<path d="M18.2683 60.4055L0.932861 24.4031L3.72638 22.9933L36.7525 46.4901L34.69 42.4173C29.4424 32.0265 24.9258 22.6016 21.1402 14.1428L24.3775 13.229C28.5286 20.4869 35.0294 32.627 43.906 49.623C43.3316 50.3018 42.6528 50.824 41.8696 51.2417C40.6948 51.8422 39.3111 52.1032 37.6924 52.051C33.959 49.8841 28.9724 46.464 22.7327 41.8168C16.493 37.1697 12.133 34.0107 9.6528 32.3659C10.8538 34.6895 13.0468 38.945 16.1797 45.1064C19.3126 51.2939 21.7406 55.9411 23.4637 59.1001C23.6987 60.3271 23.3593 61.1626 22.4716 61.6064C21.8451 61.9197 21.1402 61.9719 20.3047 61.7369C19.4432 61.4759 18.7644 61.0582 18.2683 60.4055Z" fill="black"/>
<path d="M36.1779 9.60077C37.1439 9.20916 38.1099 9.31359 39.102 9.91406C40.068 10.5145 40.7729 11.3239 41.1906 12.4204C41.5039 13.2036 41.5561 13.9085 41.3733 14.5612C41.1906 15.1878 40.7729 15.6316 40.1202 15.8927C39.1281 16.2843 38.1621 16.1799 37.2744 15.5794C36.3868 14.9789 35.708 14.1174 35.2642 13.0209C34.9509 12.2376 34.8725 11.5327 35.0292 10.9062C35.2119 10.2796 35.5774 9.83574 36.1779 9.60077ZM39.2064 19.5217L41.8955 19.0778C43.3314 21.8975 45.3939 26.4141 48.083 32.6277C50.7721 38.8413 52.443 42.6791 53.0957 44.1411C53.2001 45.3682 52.8085 46.1775 51.8686 46.543C51.2159 46.8041 50.511 46.778 49.7017 46.4908C48.9184 46.2036 48.2919 45.7076 47.848 45.0288C47.352 43.5407 45.9944 39.6506 43.7752 33.3848C41.5822 27.119 40.068 22.4979 39.2064 19.5217Z" fill="black"/>
<path d="M71.0581 16.7799L68.604 17.3804C67.1942 15.5529 65.5755 14.9524 63.748 15.5268C62.9386 15.7878 62.1554 16.2317 61.3722 16.8843C60.589 17.537 59.9624 18.1375 59.4924 18.7119C59.0225 19.2862 58.422 20.0695 57.7171 21.1138C57.8738 21.6359 58.3959 23.3068 59.2575 26.1264C60.119 28.9722 61.1372 32.1051 62.2598 35.5252C63.4086 38.9714 64.0352 40.7989 64.1918 41.0339C64.1918 42.2348 63.7219 42.992 62.7559 43.3053C62.0771 43.5141 61.3722 43.4358 60.589 43.0964C59.8057 42.757 59.2314 42.2348 58.8397 41.5038C55.8635 29.4943 53.6965 20.3828 52.3651 14.1953L55.0541 13.9603L56.3856 17.5893C58.2915 14.6652 60.1451 12.916 61.9727 12.3416C63.9829 11.715 65.8105 11.6367 67.4814 12.1328C69.1522 12.6288 70.2488 13.7514 70.797 15.5006C70.9537 16.0228 71.032 16.4666 71.0581 16.7799Z" fill="black"/>
<path d="M89.7767 4.7962L93.7189 4.48291C93.6406 7.61582 93.4579 12.3674 93.2229 18.7899C92.9618 25.2124 92.8052 30.4078 92.753 34.3761C91.3431 34.9505 90.09 35.3682 88.9935 35.5771C88.0797 35.7598 87.2181 35.8643 86.4088 35.8904C85.4167 34.0628 83.8764 31.1388 81.7617 27.1704C79.6469 23.2021 77.8194 19.7298 76.3052 16.7796C74.7909 13.8555 73.4072 11.0359 72.1018 8.32073L75.8874 7.79858L88.2102 29.729C88.4191 27.797 88.628 25.6301 88.8107 23.2282C88.9935 20.8263 89.124 18.7899 89.2023 17.0929C89.2806 15.3959 89.359 13.2029 89.4895 10.4877C89.6462 7.77247 89.7245 5.86661 89.7767 4.7962Z" fill="black"/>
<path d="M101.996 7.59028L100.534 4.79676C101.421 3.70024 102.596 2.76037 104.058 2.00325C105.52 1.24613 107.008 0.77619 108.496 0.619544C114.971 -0.111469 118.809 5.13616 120.062 16.2841C120.245 17.8245 120.401 20.0697 120.558 23.0721C120.715 26.0745 120.871 28.3197 121.054 29.8079C120.871 31.0349 120.349 31.6876 119.462 31.792C118.783 31.8704 118.104 31.5832 117.451 30.9827C116.799 30.3561 116.433 29.6251 116.329 28.7897C116.303 28.5286 116.303 28.3197 116.329 28.2153C114.214 30.7738 111.812 32.2098 109.149 32.4969C107.113 32.7319 105.259 32.1837 103.588 30.8783C101.917 29.5729 100.951 27.8759 100.716 25.7612C100.325 22.2105 101.343 18.8427 103.797 15.6575C106.251 12.4724 109.227 10.6971 112.752 10.3055C112.909 10.2794 113.065 10.2794 113.222 10.2794C113.378 10.2794 113.561 10.2794 113.77 10.3055C113.979 10.3316 114.162 10.3316 114.266 10.3055C113.457 5.89328 111.446 3.883 108.183 4.2485C106.277 4.45737 104.215 5.57999 101.996 7.59028ZM115.989 24.2208C115.754 21.5317 115.571 19.4954 115.415 18.1378C115.284 16.989 115.075 15.3965 114.762 13.334L114.292 13.3862C111.577 13.7256 109.227 15.031 107.191 17.2501C105.181 19.4954 104.319 22.0278 104.632 24.8474C104.763 26.0745 105.259 27.0144 106.068 27.6409C106.904 28.2936 107.844 28.5547 108.914 28.4242C110.663 28.2414 112.987 26.8577 115.989 24.2208Z" fill="black"/>
<path d="M130.48 7.04152L131.08 29.964C130.506 30.2773 129.827 30.4601 129.018 30.4601C128.391 30.4601 127.712 30.3817 126.929 30.199C127.007 27.771 127.007 22.9933 126.929 15.8659C126.851 8.73851 126.929 3.46478 127.138 0.0446777L129.749 0.56683L129.983 3.80417C131.994 1.61113 134.317 0.488507 136.98 0.4624C138.338 0.436292 139.408 0.514615 140.218 0.697368C141.027 0.880121 141.81 1.32395 142.567 2.08107C143.324 2.81208 143.925 3.80417 144.317 5.03123C144.708 6.25829 145.1 8.0075 145.439 10.305C145.779 12.6024 146.04 15.2654 146.222 18.32C146.405 21.3746 146.562 25.2385 146.666 29.8857C146.431 29.964 145.987 30.0162 145.335 30.0162C143.951 30.0423 142.881 29.8857 142.097 29.5463C141.941 28.9197 141.836 27.9015 141.81 26.4917C141.81 25.7607 141.81 24.377 141.836 22.3406C141.862 20.3042 141.862 18.7377 141.836 17.6151C141.81 15.7615 141.706 14.1428 141.549 12.7591C141.393 11.3754 141.131 10.0178 140.74 8.66019C140.348 7.3287 139.774 6.2844 139.017 5.55338C138.26 4.82237 137.32 4.48297 136.197 4.50908C134.918 4.53519 133.926 4.63962 133.221 4.84848C132.516 5.05734 132.02 5.29231 131.733 5.57949C131.472 5.84057 131.054 6.33661 130.48 7.04152Z" fill="black"/>
<path d="M156.273 5.60542L155.385 2.55083C156.482 1.63707 157.814 0.958268 159.406 0.514439C160.999 0.070609 162.539 -0.0860364 164.027 0.0445016C170.502 0.644977 173.217 6.5453 172.173 17.7455C172.042 19.2858 171.729 21.5311 171.285 24.5073C170.841 27.4836 170.528 29.7028 170.397 31.217C169.98 32.3657 169.327 32.914 168.439 32.8357C167.761 32.7835 167.16 32.3657 166.638 31.6347C166.116 30.9037 165.907 30.0944 165.985 29.2589C166.011 28.9978 166.037 28.789 166.09 28.6846C163.505 30.7732 160.868 31.6869 158.179 31.4259C156.143 31.2431 154.446 30.3293 153.062 28.7107C151.678 27.092 151.104 25.2384 151.287 23.1236C151.626 19.5469 153.297 16.4662 156.351 13.8554C159.406 11.2447 162.696 10.0959 166.22 10.4353C166.377 10.4614 166.533 10.4614 166.69 10.5137C166.847 10.5398 167.029 10.592 167.238 10.6442C167.447 10.6964 167.604 10.7486 167.734 10.7486C167.839 6.28422 166.272 3.88232 163.009 3.56903C161.103 3.38628 158.858 4.06507 156.273 5.60542ZM166.612 24.7162C166.925 22.0532 167.16 20.0168 167.291 18.6331C167.395 17.4844 167.499 15.8657 167.63 13.8032L167.16 13.751C164.445 13.5421 161.86 14.3254 159.432 16.1007C157.004 17.876 155.647 20.1996 155.385 23.0453C155.281 24.2724 155.542 25.2906 156.221 26.0738C156.9 26.8831 157.787 27.327 158.858 27.4314C160.581 27.5619 163.139 26.6743 166.612 24.7162Z" fill="black"/>
<path d="M216.008 11.5322L219.663 13.0465C218.175 15.7878 215.851 19.965 212.692 25.552C209.533 31.1391 207.027 35.7079 205.173 39.2324C203.659 39.1019 202.353 38.893 201.283 38.6058C200.395 38.3709 199.586 38.0576 198.829 37.6921C198.803 35.6035 198.724 32.3139 198.646 27.7973C198.568 23.2807 198.516 19.3906 198.516 16.075C198.516 12.7593 198.568 9.60028 198.646 6.5979L202.249 7.87717L203.241 33.0188C204.311 31.4001 205.486 29.5465 206.739 27.5101C207.993 25.4476 209.063 23.6984 209.898 22.2364C210.734 20.7743 211.83 18.8424 213.162 16.4927C214.546 14.1169 215.485 12.4721 216.008 11.5322Z" fill="black"/>
<path d="M225.615 19.5992L225.589 16.4401C226.869 15.8658 228.357 15.5525 230.001 15.5525C231.646 15.5525 233.187 15.8136 234.596 16.3357C240.679 18.6332 241.724 25.0557 237.729 35.5509C237.181 36.9868 236.293 39.0755 235.066 41.8168C233.839 44.5581 232.952 46.6467 232.429 48.0304C231.725 49.0486 230.941 49.388 230.132 49.0747C229.479 48.8397 229.009 48.2914 228.722 47.4299C228.435 46.5683 228.435 45.759 228.722 44.9758C228.827 44.7147 228.905 44.5581 228.983 44.4536C225.929 45.759 223.135 45.9418 220.629 45.0019C218.723 44.2709 217.313 42.9655 216.426 41.0335C215.538 39.1016 215.46 37.1435 216.217 35.1854C217.496 31.8436 219.95 29.3112 223.579 27.5881C227.208 25.8911 230.68 25.6561 233.996 26.9093C234.126 26.9615 234.283 27.0398 234.414 27.0921C234.544 27.1704 234.701 27.2487 234.884 27.3792C235.066 27.4837 235.223 27.562 235.327 27.6142C236.633 23.3326 235.745 20.6174 232.691 19.4425C230.863 18.7376 228.513 18.7898 225.615 19.5992ZM230.497 40.7724C231.516 38.2922 232.273 36.3864 232.769 35.081C233.187 34.0106 233.709 32.4702 234.388 30.5122L233.944 30.3555C231.385 29.4156 228.67 29.494 225.876 30.5644C223.057 31.6348 221.151 33.5145 220.133 36.1775C219.689 37.3262 219.689 38.3705 220.133 39.3365C220.577 40.2764 221.308 40.9552 222.3 41.3468C223.892 41.9212 226.634 41.7384 230.497 40.7724Z" fill="black"/>
<path d="M251.357 32.1314L241.253 52.7042C240.601 52.7303 239.922 52.5476 239.191 52.182C238.643 51.8949 238.068 51.5032 237.468 50.9811C238.669 48.8664 240.862 44.6369 244.099 38.2928C247.336 31.9486 249.843 27.3015 251.618 24.3774L253.681 26.0483L252.375 29.0246C255.169 28.0064 257.753 28.1108 260.129 29.3118C261.33 29.9123 262.244 30.4866 262.897 31.0349C263.523 31.5831 264.019 32.3403 264.359 33.3585C264.698 34.3767 264.75 35.4993 264.541 36.7786C264.332 38.0578 263.836 39.7809 263.105 41.974C262.348 44.167 261.356 46.6472 260.103 49.4408C258.85 52.2343 257.179 55.7327 255.143 59.9099C254.908 59.8838 254.49 59.701 253.916 59.4139C252.689 58.7873 251.801 58.1607 251.253 57.508C251.383 56.8814 251.775 55.9415 252.427 54.6623C252.767 54.0096 253.393 52.7825 254.359 51.0072C255.325 49.2319 256.056 47.8221 256.552 46.83C257.388 45.1852 258.041 43.6971 258.563 42.3917C259.059 41.0863 259.45 39.7548 259.738 38.3711C260.025 36.9874 259.999 35.8126 259.659 34.8205C259.32 33.8284 258.641 33.0713 257.649 32.5752C256.526 32.0009 255.586 31.6354 254.855 31.5048C254.124 31.3482 253.576 31.3482 253.211 31.4526C252.793 31.5309 252.192 31.7659 251.357 32.1314Z" fill="black"/>
</svg>
